<svg width="25" height="24" viewBox="0 0 25 24" fill="none" xmlns="http://www.w3.org/2000/svg">
<g id="Inner Plugin Iframe">
<path id="Vector" d="M8.6323 3.49956C8.50147 3.63351 8.42822 3.81332 8.42822 4.00056C8.42822 4.1878 8.50147 4.36762 8.6323 4.50156L15.9418 12.0001L8.6323 19.4971C8.50147 19.631 8.42822 19.8108 8.42822 19.9981C8.42822 20.1853 8.50147 20.3651 8.6323 20.4991C8.6959 20.5644 8.77193 20.6163 8.85592 20.6517C8.9399 20.6872 9.03014 20.7054 9.1213 20.7054C9.21246 20.7054 9.3027 20.6872 9.38669 20.6517C9.47067 20.6163 9.54671 20.5644 9.6103 20.4991L17.3833 12.5236C17.5198 12.3835 17.5962 12.1957 17.5962 12.0001C17.5962 11.8045 17.5198 11.6166 17.3833 11.4766L9.6103 3.50106C9.54671 3.43575 9.47067 3.38383 9.38669 3.34839C9.3027 3.31294 9.21246 3.29468 9.1213 3.29468C9.03014 3.29468 8.9399 3.31294 8.85592 3.34839C8.77193 3.38383 8.6959 3.43575 8.6323 3.50106V3.49956Z" fill="#334E3D"/>
</g>
</svg>
